<?xml version="1.0" standalone="no"?>
<!DOCTYPE svg PUBLIC "-//W3C//DTD SVG 1.1//EN"
  "http://www.w3.org/Graphics/SVG/1.1/DTD/svg11.dtd">
<svg width="500" height="40" version="1.1"
  xmlns="http://www.w3.org/2000/svg" style="stroke-width:1;">
<g transform="translate(10,20)"><g transform="translate(10,0)"><path stroke="black" fill="none" d="M0 -12 L0 9" transform="translate(4,0)"></path><path stroke="black" fill="none" d="M0 -12 L0 5 L1 8 L3 9 L5 9 M-3 -5 L4 -5" transform="translate(13,0)"></path><path stroke="black" fill="none" d="M0 -10 L-1 -11 L0 -12 L1 -11 L1 -9 L0 -7 L-1 -6" transform="translate(25,0)"></path><path stroke="black" fill="none" d="M6 -2 L5 -4 L2 -5 L-1 -5 L-4 -4 L-5 -2 L-4 0 L-2 1 L3 2 L5 3 L6 5 L6 6 L5 8 L2 9 L-1 9 L-4 8 L-5 6" transform="translate(38,0)"></path></g><g transform="translate(73,0)"><path stroke="black" fill="none" d="M6 -5 L6 9 M6 -2 L4 -4 L2 -5 L-1 -5 L-3 -4 L-5 -2 L-6 1 L-6 3 L-5 6 L-3 8 L-1 9 L2 9 L4 8 L6 6" transform="translate(9,0)"></path><path stroke="black" fill="none" d="M0 -12 L0 9" transform="translate(23,0)"></path><path stroke="black" fill="none" d="M0 -12 L0 9" transform="translate(31,0)"></path></g><g transform="translate(124,0)"><path stroke="black" fill="none" d="M-2 -12 L-4 -11 L-6 -9 L-7 -7 L-8 -4 L-8 1 L-7 4 L-6 6 L-4 8 L-2 9 L2 9 L4 8 L6 6 L7 4 L8 1 L8 -4 L7 -7 L6 -9 L4 -11 L2 -12 L-2 -12" transform="translate(11,0)"></path><path stroke="black" fill="none" d="M-7 -12 L-7 9 M7 -12 L-7 2 M-2 -3 L7 9" transform="translate(33,0)"></path><path stroke="black" fill="none" d="M0 -12 L-8 9 M0 -12 L8 9 M-5 2 L5 2" transform="translate(52,0)"></path><path stroke="black" fill="none" d="M-8 -12 L0 -2 L0 9 M8 -12 L0 -2" transform="translate(70,0)"></path><path stroke="black" fill="none" d="M0 -12 L0 2 M0 7 L-1 8 L0 9 L1 8 L0 7" transform="translate(84,0)"></path></g></g></svg>